PathFileType	4	(X/Y/Z)	/Users/itak/Documents/Research/Walk-IL/dataset/trc/00235_00009.trc
DataRate	CameraRate	NumFrames	NumMarkers	Units	OrigDataRate	OrigDataStartFrame	OrigNumFrames
100.000000	100.000000	4	53	mm	100.000000	630	841
Frame#	Time	RPSI			LPSI			L3			STRN			T10			C7			CLAV			RBAK			LBAK			LSHO			LUPA			LAEL			LAOL			LWTS			LWPS			LFRA			LIFD			LHPS			LHTS			RSHO			RUPA			RAEL			RAOL			RWTS			RWPS			RFRA			RIFD			RHTS			RHPS			RBHD			LFHD			RFHD			LBHD			LHIP			RHIP			RASI			LASI			LKNE			LTHI			LANK			LTIP			LTOE			LMT1			LMT5			LHEE			RKNE			RTHI			RANK			RTIP			RTOE			RMT1			RMT5			RHEE			
		X1	Y1	Z1	X2	Y2	Z2	X3	Y3	Z3	X4	Y4	Z4	X5	Y5	Z5	X6	Y6	Z6	X7	Y7	Z7	X8	Y8	Z8	X9	Y9	Z9	X10	Y10	Z10	X11	Y11	Z11	X12	Y12	Z12	X13	Y13	Z13	X14	Y14	Z14	X15	Y15	Z15	X16	Y16	Z16	X17	Y17	Z17	X18	Y18	Z18	X19	Y19	Z19	X20	Y20	Z20	X21	Y21	Z21	X22	Y22	Z22	X23	Y23	Z23	X24	Y24	Z24	X25	Y25	Z25	X26	Y26	Z26	X27	Y27	Z27	X28	Y28	Z28	X29	Y29	Z29	X30	Y30	Z30	X31	Y31	Z31	X32	Y32	Z32	X33	Y33	Z33	X34	Y34	Z34	X35	Y35	Z35	X36	Y36	Z36	X37	Y37	Z37	X38	Y38	Z38	X39	Y39	Z39	X40	Y40	Z40	X41	Y41	Z41	X42	Y42	Z42	X43	Y43	Z43	X44	Y44	Z44	X45	Y45	Z45	X46	Y46	Z46	X47	Y47	Z47	X48	Y48	Z48	X49	Y49	Z49	X50	Y50	Z50	X51	Y51	Z51	X52	Y52	Z52	X53	Y53	Z53	

631	6.3	-408.0028076171875	1016.453979492188	322.3571472167969	-314.5054931640625	1023.275695800781	245.5874633789062	-354.1022644042969	1104.845825195312	265.132080078125	-187.2207794189453	1288.538818359375	452.1556396484375	-360.2940063476562	1233.601684570312	266.3445129394531	-311.2560424804688	1494.509399414062	312.6780395507812	-206.0585021972656	1405.913696289062	434.8387145996094	-417.1996765136719	1355.915405273438	299.7567749023438	-242.7778625488281	1456.286376953125	224.5111083984375	-141.4572296142578	1455.182495117188	252.2264709472656	-109.4643478393555	1338.398681640625	170.3143768310547	-90.34024047851562	1130.119262695312	145.6908569335938	-176.4542694091797	1113.260498046875	136.6658020019531	-43.45182037353516	906.0308837890625	258.8572387695312	-12.71339797973633	886.7077026367188	182.2720336914062	-60.84618377685547	1024.681884765625	152.2006530761719	-26.25017356872559	710.5330810546875	263.470458984375	1.197271227836609	799.5597534179688	200.0735626220703	-0.2950477600097656	806.0444946289062	268.1842956542969	-402.57421875	1449.527465820312	465.9239501953125	-465.4391479492188	1384.046752929688	493.448486328125	-513.7884521484375	1104.433715820312	501.1418151855469	-469.662109375	1096.963134765625	416.77685546875	-390.7282104492188	890.7122802734375	577.2516479492188	-474.3449401855469	876.2149658203125	580.5735473632812	-505.8581848144531	1035.660522460938	529.732666015625	-376.3084716796875	697.5040893554688	585.0439453125	-376.161865234375	770.1053466796875	617.3619995117188	-448.4521484375	769.7255249023438	611.4735717773438	-305.7720031738281	1663.829467773438	394.9469909667969	-94.61198425292969	1664.799438476562	480.242431640625	-166.9723205566406	1667.087646484375	548.6085205078125	-177.2006988525391	1658.168823242188	337.8047180175781	-139.9294281005859	962.5993041992188	229.7300720214844	-420.7722778320312	984.3706665039062	467.6099243164062	-330.0941467285156	1029.861938476562	511.9631652832031	-111.0810699462891	1009.466491699219	335.6231384277344	-199.5376434326172	482.180908203125	281.5376586914062	-161.2691345214844	624.4338989257812	267.0939025878906	-355.0367431640625	61.8463249206543	92.19660186767578	-268.5614624023438	277.8761291503906	185.5924377441406	-375.0770874023438	38.61764907836914	311.9514770507812	-423.6218566894531	44.08474349975586	248.6742858886719	-315.4100952148438	41.06466293334961	213.2855377197266	-415.732177734375	89.4527587890625	44.06124877929688	-268.7761535644531	530.0651245117188	593.7268676757812	-353.6554870605469	779.5667114257812	559.5592041015625	-246.1405639648438	30.95682144165039	638.5606079101562	-232.2772521972656	413.5394897460938	615.2617797851562	-47.03964233398438	70.46343231201172	703.5836181640625	-71.99419403076172	60.06373596191406	638.6185302734375	-162.3417663574219	37.04869079589844	712.9678344726562	-268.4722900390625	28.70695114135742	555.6665649414062	
632	6.31	-405.2881469726562	1016.935668945312	329.8108825683594	-312.1020202636719	1023.379028320312	252.4693450927734	-351.9173889160156	1104.509155273438	272.2546691894531	-184.2584838867188	1289.148803710938	457.5994873046875	-358.8003234863281	1233.320556640625	273.32666015625	-310.2226867675781	1494.4658203125	318.87109375	-203.5698547363281	1406.406982421875	440.1554870605469	-415.8468322753906	1355.569946289062	307.1663818359375	-242.4907379150391	1456.165405273438	230.1774139404297	-140.9402923583984	1455.364379882812	256.6483764648438	-109.9770584106445	1338.343872070312	174.5704040527344	-91.16155242919922	1130.151611328125	149.8416748046875	-177.6074371337891	1113.290893554688	142.1883087158203	-42.59442138671875	905.5820922851562	261.3905029296875	-13.2341947555542	886.5134887695312	184.22607421875	-61.68986892700195	1024.671020507812	155.5176391601562	-25.40331840515137	710.1044921875	265.0855102539062	0.9813662171363831	799.326416015625	201.4850311279297	0.6939881443977356	805.575439453125	269.6175231933594	-399.9665222167969	1449.510498046875	473.0450439453125	-462.4149169921875	1383.879760742188	501.248779296875	-509.8638000488281	1104.156982421875	509.7007751464844	-466.6060180664062	1096.72412109375	424.8370971679688	-386.4274597167969	890.1990356445312	584.577880859375	-470.031494140625	875.8899536132812	588.6611328125	-501.6994323730469	1035.416748046875	538.215087890625	-372.3843688964844	696.9417114257812	592.0490112304688	-371.7915344238281	769.5147705078125	624.4124755859375	-444.1397705078125	769.29736328125	619.1865234375	-304.0010070800781	1664.20068359375	400.9373779296875	-92.01541137695312	1665.308471679688	484.0625610351562	-163.6878051757812	1667.653564453125	553.1737670898438	-176.0551300048828	1658.4970703125	342.4949340820312	-137.9444580078125	962.3720092773438	235.3296813964844	-416.5239868164062	985.013427734375	475.5181579589844	-326.06396484375	1030.2080078125	519.0195922851562	-108.2355422973633	1009.465576171875	340.96728515625	-197.1763763427734	482.0142822265625	286.0331726074219	-158.9362030029297	624.2429809570312	271.9124450683594	-355.1325378417969	63.90180969238281	92.89318084716797	-267.4246520996094	278.9160766601562	188.2462158203125	-374.8870849609375	38.61522674560547	312.1139221191406	-423.4171447753906	44.79928970336914	249.1959381103516	-315.4783935546875	41.15314483642578	213.5683441162109	-415.7745056152344	92.69721984863281	45.38735198974609	-263.9172058105469	530.5435180664062	599.4725341796875	-348.8304748535156	780.1139526367188	566.5281982421875	-245.8299102783203	30.64776611328125	639.4370727539062	-227.8454742431641	413.3772583007812	619.8921508789062	-45.20923614501953	66.08599853515625	704.2992553710938	-71.07648468017578	57.31527328491211	639.45654296875	-161.8377075195312	35.11402893066406	714.1510620117188	-268.2644958496094	29.66658401489258	556.5611572265625	
633	6.32	-402.3862609863281	1017.53662109375	337.0921325683594	-309.4227600097656	1023.561157226562	259.2877197265625	-349.5254821777344	1104.332885742188	279.2732849121094	-181.267822265625	1289.887939453125	463.0473022460938	-357.1564636230469	1233.203002929688	280.2015380859375	-309.1327819824219	1494.562866210938	325.0837707519531	-201.0364227294922	1407.032592773438	445.5081481933594	-414.4215393066406	1355.384033203125	314.5700988769531	-242.1007537841797	1456.215087890625	235.8994140625	-140.3361968994141	1455.73583984375	261.14697265625	-110.4007339477539	1338.46826171875	178.9436492919922	-91.91630554199219	1130.351684570312	154.1898193359375	-178.7242889404297	1113.495849609375	147.8942108154297	-41.70419692993164	905.3106079101562	264.13232421875	-13.74798011779785	886.4968872070312	186.408935546875	-62.47988891601562	1024.824096679688	159.0484008789062	-24.55316543579102	709.8594970703125	266.9129333496094	0.7634792923927307	799.2734375	203.1234741210938	1.66683828830719	805.2858276367188	271.2611999511719	-397.2633361816406	1449.639404296875	480.1737976074219	-459.32666015625	1383.867553710938	509.0392761230469	-505.8380126953125	1104.033447265625	518.24755859375	-463.439697265625	1096.643432617188	432.8817138671875	-382.0893859863281	889.8547973632812	591.957763671875	-465.6635131835938	875.7456665039062	596.7782592773438	-497.4664306640625	1035.33740234375	546.6753540039062	-368.5292358398438	696.5234375	599.0836791992188	-367.4024963378906	769.0673217773438	631.5048828125	-439.8212585449219	769.0342407226562	626.9559326171875	-302.1845092773438	1664.684692382812	406.9770202636719	-89.4154052734375	1665.94677734375	487.9447631835938	-160.39453125	1668.34326171875	557.7860107421875	-174.8806610107422	1658.942260742188	347.2518615722656	-135.8731231689453	962.2100219726562	240.9441070556641	-412.2042236328125	985.8573608398438	483.2987976074219	-322.03125	1030.789306640625	525.9921264648438	-105.3369064331055	1009.550109863281	346.3638000488281	-194.6231384277344	481.8878784179688	290.7635803222656	-156.4574279785156	624.1012573242188	276.9185485839844	-355.3749084472656	66.15171051025391	93.69197082519531	-266.24609375	280.1074523925781	191.0632476806641	-374.6742248535156	38.61454010009766	312.2933044433594	-423.2224731445312	45.57642364501953	249.8170928955078	-315.6097412109375	41.25666427612305	213.8777313232422	-415.9267883300781	96.26731872558594	46.95600128173828	-259.395263671875	531.0823974609375	605.34326171875	-344.0624694824219	780.9735107421875	573.4645385742188	-245.7220611572266	30.39065361022949	640.2135620117188	-223.8671722412109	413.3118896484375	624.5928955078125	-43.95574951171875	62.38809204101562	705.251953125	-70.51335906982422	55.17445755004883	640.5436401367188	-161.7930450439453	33.60463333129883	715.4281616210938	-268.1078186035156	30.46069717407227	557.391357421875	
634	6.33	-399.3345336914062	1018.221130371094	344.2364196777344	-306.524658203125	1023.818664550781	266.0572814941406	-346.9698791503906	1104.32080078125	286.18603515625	-178.2384490966797	1290.739013671875	468.4791870117188	-355.3646850585938	1233.243408203125	286.9679565429688	-307.9862365722656	1494.795043945312	331.3049926757812	-198.4593505859375	1407.775390625	450.88427734375	-412.9248046875	1355.3486328125	321.9603881835938	-241.5973052978516	1456.437866210938	241.6602630615234	-139.6341400146484	1456.292602539062	265.7221374511719	-110.7017822265625	1338.779418945312	183.4293670654297	-92.59169006347656	1130.723266601562	158.7051086425781	-179.7806549072266	1113.873291015625	153.7531433105469	-40.78219223022461	905.2273559570312	267.0801086425781	-14.24483966827393	886.6629028320312	188.820068359375	-63.2017936706543	1025.146240234375	162.7769470214844	-23.71872138977051	709.8038940429688	268.9547424316406	0.5355309247970581	799.3997192382812	204.9903564453125	2.613176822662354	805.1776123046875	273.1158447265625	-394.4630737304688	1449.902221679688	487.3002014160156	-456.1732788085938	1384.003173828125	516.81103515625	-501.7313537597656	1104.060546875	526.7698974609375	-460.1799621582031	1096.709716796875	440.9005737304688	-377.7066040039062	889.6874389648438	599.3936157226562	-461.237060546875	875.781982421875	604.92236328125	-493.1754760742188	1035.416870117188	555.0996704101562	-364.7157287597656	696.2631225585938	606.1597290039062	-362.9822998046875	768.7762451171875	638.6443481445312	-435.4765930175781	768.9464111328125	634.78173828125	-300.3245849609375	1665.264526367188	413.0663757324219	-86.80587005615234	1666.701049804688	491.8880310058594	-157.0865325927734	1669.1416015625	562.4434204101562	-173.6763305664062	1659.497314453125	352.0733032226562	-133.717529296875	962.1338500976562	246.5660705566406	-407.8616638183594	986.8616943359375	490.9583129882812	-317.9869995117188	1031.583374023438	532.886474609375	-102.4179916381836	1009.721313476562	351.7915954589844	-191.8338775634766	481.8019409179688	295.6992797851562	-153.8296508789062	624.0167236328125	282.0691833496094	-355.7588806152344	68.59717559814453	94.61620330810547	-264.98193359375	281.4634094238281	194.0336151123047	-374.4419555664062	38.61502075195312	312.4839782714844	-423.0299072265625	46.41213607788086	250.5398864746094	-315.7964477539062	41.37531280517578	214.2188262939453	-416.1694030761719	100.17041015625	48.80123519897461	-255.2730102539062	531.5899047851562	611.2109985351562	-339.3858642578125	782.0556030273438	580.3640747070312	-245.751708984375	30.17620658874512	640.86328125	-220.3605346679688	413.2730102539062	629.2449951171875	-43.10023498535156	59.35617828369141	706.186279296875	-70.16323852539062	53.56550598144531	641.6277465820312	-161.9890747070312	32.51091384887695	716.6141357421875	-268.0206909179688	31.05830192565918	558.1298828125	
